<svg xmlns="http://www.w3.org/2000/svg" viewBox="0 0 128 128" role="img" aria-label="Cute chat support icon">
  <defs>
    <filter id="shadow" x="-20%" y="-20%" width="140%" height="140%">
      <feDropShadow dx="0" dy="4" stdDeviation="4" flood-color="#000000" flood-opacity="0.22"/>
    </filter>
    <linearGradient id="bubble" x1="0" x2="1" y1="0" y2="1">
      <stop offset="0%" stop-color="#f7fbff"/>
      <stop offset="100%" stop-color="#dfeeff"/>
    </linearGradient>
  </defs>

  <circle cx="64" cy="64" r="62" fill="#1d3f66" filter="url(#shadow)"/>

  <g transform="translate(18 22)">
    <path d="M18 28c0-12.15 9.85-22 22-22h30c12.15 0 22 9.85 22 22v18c0 12.15-9.85 22-22 22H52L34 84V68H40C27.85 68 18 58.15 18 46V28z" fill="url(#bubble)" stroke="#17324f" stroke-width="4" stroke-linejoin="round"/>
    <path d="M28 31c0-6.63 5.37-12 12-12h28c6.63 0 12 5.37 12 12v11c0 6.63-5.37 12-12 12H49L35 69V54h5c-6.63 0-12-5.37-12-12V31z" fill="#ffffff" opacity="0.92"/>

    <circle cx="46" cy="44" r="14" fill="#ffffff" stroke="#17324f" stroke-width="4"/>
    <circle cx="84" cy="44" r="14" fill="#ffffff" stroke="#17324f" stroke-width="4"/>

    <circle cx="46" cy="44" r="7" fill="#17324f"/>
    <circle cx="84" cy="44" r="7" fill="#17324f"/>
    <circle cx="49" cy="41" r="2" fill="#ffffff"/>
    <circle cx="87" cy="41" r="2" fill="#ffffff"/>

    <path d="M59 54c3.5 3.2 10.5 3.2 14 0" fill="none" stroke="#17324f" stroke-width="4" stroke-linecap="round"/>
    <circle cx="38" cy="56" r="4" fill="#ffb8d1" opacity="0.85"/>
    <circle cx="92" cy="56" r="4" fill="#ffb8d1" opacity="0.85"/>

    <path d="M35 23c0-4 3.2-7.2 7.2-7.2h2.8" fill="none" stroke="#8ec5ff" stroke-width="4" stroke-linecap="round"/>
    <path d="M93 23c0-4-3.2-7.2-7.2-7.2H83" fill="none" stroke="#8ec5ff" stroke-width="4" stroke-linecap="round"/>

    <circle cx="14" cy="84" r="5" fill="#e8f3ff" opacity="0.95"/>
    <circle cx="100" cy="84" r="4" fill="#e8f3ff" opacity="0.85"/>
    <circle cx="108" cy="34" r="3" fill="#8ec5ff" opacity="0.9"/>
  </g>
</svg>